<?xml version="1.0" encoding="utf-8"?>
<!-- Svg Vector Icons : http://www.onlinewebfonts.com/icon -->
<!DOCTYPE svg PUBLIC "-//W3C//DTD SVG 1.1//EN" "http://www.w3.org/Graphics/SVG/1.1/DTD/svg11.dtd">
<svg version="1.1" xmlns="http://www.w3.org/2000/svg" xmlns:xlink="http://www.w3.org/1999/xlink" x="0px" y="0px" viewBox="0 0 1000 1000" enable-background="new 0 0 1000 1000" xml:space="preserve">
<metadata> Svg Vector Icons : http://www.onlinewebfonts.com/icon </metadata>
<g><path d="M500,563.9c-35.3,0-63.9,28.6-63.9,63.9c0,19,8.2,36,21.3,47.7v58.9c0,23.5,19.1,42.6,42.6,42.6c23.5,0,42.6-19.1,42.6-42.6v-58.9c13.1-11.7,21.3-28.7,21.3-47.7C563.9,592.5,535.3,563.9,500,563.9L500,563.9L500,563.9z M798.2,372.2h-42.6V265.7C755.7,124.4,641.2,10,500,10S244.3,124.4,244.3,265.7v106.5h-42.6c-58.9,0-106.5,47.7-106.5,106.5v404.8c0,58.8,47.7,106.5,106.5,106.5h596.5c58.8,0,106.5-47.7,106.5-106.5V478.7C904.8,419.8,857.1,372.2,798.2,372.2L798.2,372.2L798.2,372.2z M500,52.6c117.6,0,213.1,95.4,213.1,213v106.5H287V265.6h0C286.9,148,382.3,52.6,500,52.6L500,52.6L500,52.6z M862.2,883.5c0,35.3-28.6,63.9-63.9,63.9H201.8c-35.3,0-63.9-28.6-63.9-63.9V478.7c0-35.3,28.6-76.2,63.9-76.2h596.5c35.3,0,63.9,40.9,63.9,76.2V883.5L862.2,883.5L862.2,883.5z"/></g>
</svg>